# xmcd CD database file
#
# Track frame offsets:
#	150
#	49513
#	82935
#	100734
#	135575
#	162983
#	205871
#
# Disc length: 3357 seconds
#
# Revision: 0
# Processed by: cddbd v1.5.2PL0 Copyright (c) Steve Scherf et al.
# Submitted via: CDex 1.77
#
DISCID=4e0d1b07
DTITLE=Brad Mehldau Trio - Blues and Ballads
DYEAR=1900
DGENRE=Jazz
TTITLE0=Since I Fell For You
TTITLE1=I Concentrate On You
TTITLE2=Little Person
TTITLE3=Cheryl
TTITLE4=These Foolish Things (Remind Me Of You)
TTITLE5=And I Love Her
TTITLE6=My Valentine
EXTD=
EXTT0=
EXTT1=
EXTT2=
EXTT3=
EXTT4=
EXTT5=
EXTT6=
PLAYORDER=
